<svg width="804" height="455" viewBox="0 0 804 455" fill="none" xmlns="http://www.w3.org/2000/svg">
<path fill-rule="evenodd" clip-rule="evenodd" d="M394.48 455C521.381 455 624.254 353.145 624.254 227.5C624.254 101.855 521.381 0 394.48 0C267.58 0 164.706 101.855 164.706 227.5C164.706 353.145 267.58 455 394.48 455ZM396.778 136.5C357.805 230.945 326.919 269.099 256.616 162.5V295.75C366.094 315.209 427.462 314.9 536.94 295.75V162.5C476.59 249.695 448.546 254.737 396.778 136.5Z" fill="#312E81"/>
<path d="M28.4511 377.945L181.866 389.524L190.135 412.958L6.36604 395.008L0 376.968L134.088 254.128L142.357 277.562L28.4511 377.945Z" fill="#312E81"/>
<path d="M775.549 114.428L622.134 102.849L613.865 79.415L797.634 97.3651L804 115.405L669.912 238.245L661.643 214.811L775.549 114.428Z" fill="#312E81"/>
</svg>
